<mxfile host="Electron" modified="2023-11-17T08:42:37.251Z" agent="Mozilla/5.0 (X11; Linux x86_64) AppleWebKit/537.36 (KHTML, like Gecko) draw.io/22.0.3 Chrome/114.0.5735.289 Electron/25.8.4 Safari/537.36" etag="9xvhDDhZ2dBSovdIY5j9" version="22.0.3" type="device">
  <diagram id="C5RBs43oDa-KdzZeNtuy" name="Page-1">
    <mxGraphModel dx="1122" dy="813" grid="1" gridSize="10" guides="1" tooltips="1" connect="1" arrows="1" fold="1" page="1" pageScale="1" pageWidth="827" pageHeight="1169" math="0" shadow="0">
      <root>
        <mxCell id="WIyWlLk6GJQsqaUBKTNV-0" />
        <mxCell id="WIyWlLk6GJQsqaUBKTNV-1" parent="WIyWlLk6GJQsqaUBKTNV-0" />
        <mxCell id="WIyWlLk6GJQsqaUBKTNV-3" value="&lt;font color=&quot;#000000&quot;&gt;Assemblage&amp;nbsp;&lt;br&gt;sommet&lt;/font&gt;" style="rounded=1;whiteSpace=wrap;html=1;fontSize=12;glass=0;strokeWidth=1;shadow=0;fillColor=#1ba1e2;fontColor=#ffffff;strokeColor=#006EAF;" parent="WIyWlLk6GJQsqaUBKTNV-1" vertex="1">
          <mxGeometry x="160" y="60" width="120" height="60" as="geometry" />
        </mxCell>
        <mxCell id="WIyWlLk6GJQsqaUBKTNV-11" value="Tests et Mélange" style="rounded=1;whiteSpace=wrap;html=1;fontSize=12;glass=0;strokeWidth=1;shadow=0;fillColor=#66FF66;" parent="WIyWlLk6GJQsqaUBKTNV-1" vertex="1">
          <mxGeometry x="160" y="614" width="120" height="140" as="geometry" />
        </mxCell>
        <mxCell id="Tu8KCkuSeomywF8r2Gp_-1" value="" style="endArrow=classic;html=1;rounded=0;entryX=0;entryY=0.25;entryDx=0;entryDy=0;strokeWidth=4;fillColor=#1ba1e2;strokeColor=#006EAF;" parent="WIyWlLk6GJQsqaUBKTNV-1" edge="1">
          <mxGeometry width="50" height="50" relative="1" as="geometry">
            <mxPoint x="83" y="73" as="sourcePoint" />
            <mxPoint x="163" y="72.5" as="targetPoint" />
          </mxGeometry>
        </mxCell>
        <mxCell id="Tu8KCkuSeomywF8r2Gp_-2" value="" style="endArrow=classic;html=1;rounded=0;entryX=0;entryY=0.25;entryDx=0;entryDy=0;strokeWidth=4;fillColor=#1ba1e2;strokeColor=#006EAF;" parent="WIyWlLk6GJQsqaUBKTNV-1" edge="1">
          <mxGeometry width="50" height="50" relative="1" as="geometry">
            <mxPoint x="83" y="94" as="sourcePoint" />
            <mxPoint x="163" y="94" as="targetPoint" />
          </mxGeometry>
        </mxCell>
        <mxCell id="Tu8KCkuSeomywF8r2Gp_-3" value="" style="endArrow=classic;html=1;rounded=0;entryX=0;entryY=0.25;entryDx=0;entryDy=0;strokeWidth=4;fillColor=#1ba1e2;strokeColor=#006EAF;" parent="WIyWlLk6GJQsqaUBKTNV-1" edge="1">
          <mxGeometry width="50" height="50" relative="1" as="geometry">
            <mxPoint x="83" y="113" as="sourcePoint" />
            <mxPoint x="163" y="113" as="targetPoint" />
          </mxGeometry>
        </mxCell>
        <mxCell id="Tu8KCkuSeomywF8r2Gp_-4" value="" style="verticalLabelPosition=bottom;verticalAlign=top;html=1;shape=mxgraph.flowchart.on-page_reference;fillColor=#000000;" parent="WIyWlLk6GJQsqaUBKTNV-1" vertex="1">
          <mxGeometry x="368.5" y="60" width="11" height="10" as="geometry" />
        </mxCell>
        <mxCell id="Tu8KCkuSeomywF8r2Gp_-5" value="" style="verticalLabelPosition=bottom;verticalAlign=top;html=1;shape=mxgraph.flowchart.on-page_reference;fillColor=#000000;" parent="WIyWlLk6GJQsqaUBKTNV-1" vertex="1">
          <mxGeometry x="448.5" y="80" width="11" height="10" as="geometry" />
        </mxCell>
        <mxCell id="Tu8KCkuSeomywF8r2Gp_-6" value="" style="verticalLabelPosition=bottom;verticalAlign=top;html=1;shape=mxgraph.flowchart.on-page_reference;fillColor=#000000;" parent="WIyWlLk6GJQsqaUBKTNV-1" vertex="1">
          <mxGeometry x="388.5" y="110" width="11" height="10" as="geometry" />
        </mxCell>
        <mxCell id="Tu8KCkuSeomywF8r2Gp_-9" value="&lt;font color=&quot;#000000&quot;&gt;Transformation&amp;nbsp;&lt;br&gt;sommet&lt;/font&gt;" style="rounded=1;whiteSpace=wrap;html=1;fontSize=12;glass=0;strokeWidth=1;shadow=0;fillColor=#1ba1e2;fontColor=#ffffff;strokeColor=#006EAF;" parent="WIyWlLk6GJQsqaUBKTNV-1" vertex="1">
          <mxGeometry x="160" y="160" width="120" height="60" as="geometry" />
        </mxCell>
        <mxCell id="Tu8KCkuSeomywF8r2Gp_-10" value="&lt;font color=&quot;#000000&quot;&gt;Assemblage&amp;nbsp;&lt;br&gt;primitive&lt;br&gt;&lt;/font&gt;" style="rounded=1;whiteSpace=wrap;html=1;fontSize=12;glass=0;strokeWidth=1;shadow=0;fillColor=#1ba1e2;fontColor=#ffffff;strokeColor=#006EAF;" parent="WIyWlLk6GJQsqaUBKTNV-1" vertex="1">
          <mxGeometry x="160" y="253" width="120" height="60" as="geometry" />
        </mxCell>
        <mxCell id="Tu8KCkuSeomywF8r2Gp_-11" value="&lt;font color=&quot;#000000&quot;&gt;Orientation&lt;br&gt;primitive&lt;/font&gt;" style="rounded=1;whiteSpace=wrap;html=1;fontSize=12;glass=0;strokeWidth=1;shadow=0;fillColor=#99CCFF;fontColor=#ffffff;strokeColor=#006EAF;" parent="WIyWlLk6GJQsqaUBKTNV-1" vertex="1">
          <mxGeometry x="160" y="336" width="120" height="60" as="geometry" />
        </mxCell>
        <mxCell id="Tu8KCkuSeomywF8r2Gp_-12" value="&lt;font color=&quot;#000000&quot;&gt;Fragmentation&lt;/font&gt;" style="rounded=1;whiteSpace=wrap;html=1;fontSize=12;glass=0;strokeWidth=1;shadow=0;fillColor=#FFFF99;fontColor=#ffffff;strokeColor=#006EAF;" parent="WIyWlLk6GJQsqaUBKTNV-1" vertex="1">
          <mxGeometry x="160" y="426" width="120" height="60" as="geometry" />
        </mxCell>
        <mxCell id="Tu8KCkuSeomywF8r2Gp_-13" value="&lt;font color=&quot;#000000&quot;&gt;Couleur + Z&lt;br&gt;fragment&lt;/font&gt;" style="rounded=1;whiteSpace=wrap;html=1;fontSize=12;glass=0;strokeWidth=1;shadow=0;fillColor=#FFFF99;fontColor=#ffffff;strokeColor=#006EAF;" parent="WIyWlLk6GJQsqaUBKTNV-1" vertex="1">
          <mxGeometry x="160" y="512" width="120" height="60" as="geometry" />
        </mxCell>
        <mxCell id="Tu8KCkuSeomywF8r2Gp_-14" value="" style="rounded=1;whiteSpace=wrap;html=1;fontSize=12;glass=0;strokeWidth=1;shadow=0;fillColor=none;fontColor=#ffffff;strokeColor=#006EAF;" parent="WIyWlLk6GJQsqaUBKTNV-1" vertex="1">
          <mxGeometry x="350" y="160" width="120" height="60" as="geometry" />
        </mxCell>
        <mxCell id="Tu8KCkuSeomywF8r2Gp_-19" value="" style="rounded=1;whiteSpace=wrap;html=1;fontSize=12;glass=0;strokeWidth=1;shadow=0;fillColor=none;fontColor=#ffffff;strokeColor=#006EAF;" parent="WIyWlLk6GJQsqaUBKTNV-1" vertex="1">
          <mxGeometry x="354" y="253" width="120" height="60" as="geometry" />
        </mxCell>
        <mxCell id="Tu8KCkuSeomywF8r2Gp_-20" value="" style="rounded=1;whiteSpace=wrap;html=1;fontSize=12;glass=0;strokeWidth=1;shadow=0;fillColor=none;fontColor=#ffffff;strokeColor=#006EAF;" parent="WIyWlLk6GJQsqaUBKTNV-1" vertex="1">
          <mxGeometry x="354" y="336" width="120" height="60" as="geometry" />
        </mxCell>
        <mxCell id="Tu8KCkuSeomywF8r2Gp_-21" value="" style="rounded=1;whiteSpace=wrap;html=1;fontSize=12;glass=0;strokeWidth=1;shadow=0;fillColor=none;fontColor=#ffffff;strokeColor=#006EAF;" parent="WIyWlLk6GJQsqaUBKTNV-1" vertex="1">
          <mxGeometry x="354" y="426" width="120" height="60" as="geometry" />
        </mxCell>
        <mxCell id="Tu8KCkuSeomywF8r2Gp_-23" value="&lt;font color=&quot;#000000&quot;&gt;ZBuffer&lt;/font&gt;" style="rounded=1;whiteSpace=wrap;html=1;fontSize=12;glass=0;strokeWidth=1;shadow=0;fillColor=#66FF66;fontColor=#ffffff;strokeColor=#006EAF;" parent="WIyWlLk6GJQsqaUBKTNV-1" vertex="1">
          <mxGeometry x="354" y="694" width="120" height="60" as="geometry" />
        </mxCell>
        <mxCell id="Tu8KCkuSeomywF8r2Gp_-24" value="&lt;font color=&quot;#000000&quot;&gt;Image&lt;/font&gt;" style="rounded=1;whiteSpace=wrap;html=1;fontSize=12;glass=0;strokeWidth=1;shadow=0;fillColor=#66FF66;fontColor=#ffffff;strokeColor=#006EAF;" parent="WIyWlLk6GJQsqaUBKTNV-1" vertex="1">
          <mxGeometry x="354" y="614" width="120" height="60" as="geometry" />
        </mxCell>
        <mxCell id="Tu8KCkuSeomywF8r2Gp_-26" value="&lt;font color=&quot;#000000&quot;&gt;Fenêtre&lt;/font&gt;" style="rounded=1;whiteSpace=wrap;html=1;fontSize=12;glass=0;strokeWidth=1;shadow=0;fillColor=#999999;fontColor=#ffffff;strokeColor=#006EAF;" parent="WIyWlLk6GJQsqaUBKTNV-1" vertex="1">
          <mxGeometry x="540" y="614" width="120" height="60" as="geometry" />
        </mxCell>
        <mxCell id="Tu8KCkuSeomywF8r2Gp_-27" value="" style="endArrow=classic;html=1;rounded=0;entryX=0;entryY=0.25;entryDx=0;entryDy=0;strokeWidth=4;fillColor=#1ba1e2;strokeColor=#006EAF;" parent="WIyWlLk6GJQsqaUBKTNV-1" edge="1">
          <mxGeometry width="50" height="50" relative="1" as="geometry">
            <mxPoint x="280" y="644.5" as="sourcePoint" />
            <mxPoint x="360" y="644" as="targetPoint" />
          </mxGeometry>
        </mxCell>
        <mxCell id="Tu8KCkuSeomywF8r2Gp_-29" value="" style="rounded=0;whiteSpace=wrap;html=1;fillColor=none;dashed=1;strokeColor=#66B2FF;strokeWidth=2;" parent="WIyWlLk6GJQsqaUBKTNV-1" vertex="1">
          <mxGeometry x="70" y="150" width="220" height="80" as="geometry" />
        </mxCell>
        <mxCell id="Tu8KCkuSeomywF8r2Gp_-30" value="Vertex&lt;br&gt;shader" style="text;html=1;strokeColor=none;fillColor=none;align=center;verticalAlign=middle;whiteSpace=wrap;rounded=0;" parent="WIyWlLk6GJQsqaUBKTNV-1" vertex="1">
          <mxGeometry x="81" y="170" width="60" height="30" as="geometry" />
        </mxCell>
        <mxCell id="Tu8KCkuSeomywF8r2Gp_-32" value="Fragment&lt;br&gt;shader" style="text;html=1;strokeColor=none;fillColor=none;align=center;verticalAlign=middle;whiteSpace=wrap;rounded=0;" parent="WIyWlLk6GJQsqaUBKTNV-1" vertex="1">
          <mxGeometry x="80" y="527" width="60" height="30" as="geometry" />
        </mxCell>
        <mxCell id="Tu8KCkuSeomywF8r2Gp_-33" value="" style="rounded=0;whiteSpace=wrap;html=1;fillColor=none;dashed=1;strokeColor=#66B2FF;strokeWidth=2;" parent="WIyWlLk6GJQsqaUBKTNV-1" vertex="1">
          <mxGeometry x="70" y="497" width="220" height="90" as="geometry" />
        </mxCell>
        <mxCell id="Tu8KCkuSeomywF8r2Gp_-35" value="" style="verticalLabelPosition=bottom;verticalAlign=top;html=1;shape=mxgraph.flowchart.on-page_reference;fillColor=#000000;" parent="WIyWlLk6GJQsqaUBKTNV-1" vertex="1">
          <mxGeometry x="407" y="264" width="11" height="10" as="geometry" />
        </mxCell>
        <mxCell id="Tu8KCkuSeomywF8r2Gp_-36" value="" style="verticalLabelPosition=bottom;verticalAlign=top;html=1;shape=mxgraph.flowchart.on-page_reference;fillColor=#000000;" parent="WIyWlLk6GJQsqaUBKTNV-1" vertex="1">
          <mxGeometry x="427" y="294" width="11" height="10" as="geometry" />
        </mxCell>
        <mxCell id="Tu8KCkuSeomywF8r2Gp_-37" value="" style="verticalLabelPosition=bottom;verticalAlign=top;html=1;shape=mxgraph.flowchart.on-page_reference;fillColor=#000000;" parent="WIyWlLk6GJQsqaUBKTNV-1" vertex="1">
          <mxGeometry x="386" y="293" width="11" height="10" as="geometry" />
        </mxCell>
        <mxCell id="Tu8KCkuSeomywF8r2Gp_-44" value="" style="endArrow=classic;html=1;rounded=0;entryX=0;entryY=0.25;entryDx=0;entryDy=0;strokeWidth=4;fillColor=#1ba1e2;strokeColor=#006EAF;" parent="WIyWlLk6GJQsqaUBKTNV-1" edge="1">
          <mxGeometry width="50" height="50" relative="1" as="geometry">
            <mxPoint x="280" y="724.08" as="sourcePoint" />
            <mxPoint x="360" y="723.58" as="targetPoint" />
          </mxGeometry>
        </mxCell>
        <mxCell id="Tu8KCkuSeomywF8r2Gp_-45" value="" style="endArrow=classic;html=1;rounded=0;entryX=0;entryY=0.25;entryDx=0;entryDy=0;strokeWidth=4;fillColor=#1ba1e2;strokeColor=#006EAF;" parent="WIyWlLk6GJQsqaUBKTNV-1" edge="1">
          <mxGeometry width="50" height="50" relative="1" as="geometry">
            <mxPoint x="470" y="644.08" as="sourcePoint" />
            <mxPoint x="550" y="643.58" as="targetPoint" />
          </mxGeometry>
        </mxCell>
        <mxCell id="Tu8KCkuSeomywF8r2Gp_-46" value="Vertex&lt;br&gt;shader" style="text;html=1;strokeColor=none;fillColor=none;align=center;verticalAlign=middle;whiteSpace=wrap;rounded=0;" parent="WIyWlLk6GJQsqaUBKTNV-1" vertex="1">
          <mxGeometry x="21" y="75" width="60" height="30" as="geometry" />
        </mxCell>
        <mxCell id="Tu8KCkuSeomywF8r2Gp_-47" value="Entrée" style="text;html=1;strokeColor=none;fillColor=none;align=center;verticalAlign=middle;whiteSpace=wrap;rounded=0;" parent="WIyWlLk6GJQsqaUBKTNV-1" vertex="1">
          <mxGeometry x="30" y="128" width="60" height="28" as="geometry" />
        </mxCell>
        <mxCell id="Tu8KCkuSeomywF8r2Gp_-48" value="Sortie" style="text;html=1;strokeColor=none;fillColor=none;align=center;verticalAlign=middle;whiteSpace=wrap;rounded=0;" parent="WIyWlLk6GJQsqaUBKTNV-1" vertex="1">
          <mxGeometry x="28" y="222" width="60" height="30" as="geometry" />
        </mxCell>
        <mxCell id="Tu8KCkuSeomywF8r2Gp_-49" value="Entrée" style="text;html=1;strokeColor=none;fillColor=none;align=center;verticalAlign=middle;whiteSpace=wrap;rounded=0;" parent="WIyWlLk6GJQsqaUBKTNV-1" vertex="1">
          <mxGeometry x="45" y="474" width="60" height="30" as="geometry" />
        </mxCell>
        <mxCell id="Tu8KCkuSeomywF8r2Gp_-50" value="Sortie" style="text;html=1;strokeColor=none;fillColor=none;align=center;verticalAlign=middle;whiteSpace=wrap;rounded=0;" parent="WIyWlLk6GJQsqaUBKTNV-1" vertex="1">
          <mxGeometry x="44" y="580" width="60" height="30" as="geometry" />
        </mxCell>
        <mxCell id="Tu8KCkuSeomywF8r2Gp_-52" value="" style="triangle;whiteSpace=wrap;html=1;rotation=-90;fillColor=#CCCCCC;" parent="WIyWlLk6GJQsqaUBKTNV-1" vertex="1">
          <mxGeometry x="397" y="264" width="30" height="40" as="geometry" />
        </mxCell>
        <mxCell id="Tu8KCkuSeomywF8r2Gp_-57" value="" style="verticalLabelPosition=bottom;verticalAlign=top;html=1;shape=mxgraph.flowchart.on-page_reference;fillColor=#000000;" parent="WIyWlLk6GJQsqaUBKTNV-1" vertex="1">
          <mxGeometry x="407" y="344" width="11" height="10" as="geometry" />
        </mxCell>
        <mxCell id="Tu8KCkuSeomywF8r2Gp_-58" value="" style="verticalLabelPosition=bottom;verticalAlign=top;html=1;shape=mxgraph.flowchart.on-page_reference;fillColor=#000000;" parent="WIyWlLk6GJQsqaUBKTNV-1" vertex="1">
          <mxGeometry x="427" y="374" width="11" height="10" as="geometry" />
        </mxCell>
        <mxCell id="Tu8KCkuSeomywF8r2Gp_-59" value="" style="verticalLabelPosition=bottom;verticalAlign=top;html=1;shape=mxgraph.flowchart.on-page_reference;fillColor=#000000;" parent="WIyWlLk6GJQsqaUBKTNV-1" vertex="1">
          <mxGeometry x="386" y="373" width="11" height="10" as="geometry" />
        </mxCell>
        <mxCell id="Tu8KCkuSeomywF8r2Gp_-60" value="" style="triangle;whiteSpace=wrap;html=1;rotation=-90;fillColor=#CCCCCC;" parent="WIyWlLk6GJQsqaUBKTNV-1" vertex="1">
          <mxGeometry x="397" y="344" width="30" height="40" as="geometry" />
        </mxCell>
        <mxCell id="Tu8KCkuSeomywF8r2Gp_-63" value="" style="verticalLabelPosition=bottom;verticalAlign=top;html=1;shape=mxgraph.flowchart.on-page_reference;fillColor=#000000;" parent="WIyWlLk6GJQsqaUBKTNV-1" vertex="1">
          <mxGeometry x="403" y="171" width="11" height="10" as="geometry" />
        </mxCell>
        <mxCell id="Tu8KCkuSeomywF8r2Gp_-64" value="" style="verticalLabelPosition=bottom;verticalAlign=top;html=1;shape=mxgraph.flowchart.on-page_reference;fillColor=#000000;" parent="WIyWlLk6GJQsqaUBKTNV-1" vertex="1">
          <mxGeometry x="423" y="201" width="11" height="10" as="geometry" />
        </mxCell>
        <mxCell id="Tu8KCkuSeomywF8r2Gp_-65" value="" style="verticalLabelPosition=bottom;verticalAlign=top;html=1;shape=mxgraph.flowchart.on-page_reference;fillColor=#000000;" parent="WIyWlLk6GJQsqaUBKTNV-1" vertex="1">
          <mxGeometry x="382" y="200" width="11" height="10" as="geometry" />
        </mxCell>
        <mxCell id="Tu8KCkuSeomywF8r2Gp_-22" value="" style="rounded=1;whiteSpace=wrap;html=1;fontSize=12;glass=0;strokeWidth=1;shadow=0;fillColor=none;fontColor=#ffffff;strokeColor=#006EAF;" parent="WIyWlLk6GJQsqaUBKTNV-1" vertex="1">
          <mxGeometry x="354" y="513" width="120" height="60" as="geometry" />
        </mxCell>
        <mxCell id="Tu8KCkuSeomywF8r2Gp_-107" value="" style="group" parent="WIyWlLk6GJQsqaUBKTNV-1" vertex="1" connectable="0">
          <mxGeometry x="385" y="520" width="54" height="50" as="geometry" />
        </mxCell>
        <mxCell id="Tu8KCkuSeomywF8r2Gp_-86" value="" style="whiteSpace=wrap;html=1;aspect=fixed;fillColor=#FF3333;" parent="Tu8KCkuSeomywF8r2Gp_-107" vertex="1">
          <mxGeometry x="18.72" width="7.2" height="7.2" as="geometry" />
        </mxCell>
        <mxCell id="Tu8KCkuSeomywF8r2Gp_-87" value="" style="whiteSpace=wrap;html=1;aspect=fixed;fillColor=#FF3333;" parent="Tu8KCkuSeomywF8r2Gp_-107" vertex="1">
          <mxGeometry x="28.080000000000002" width="7.2" height="7.2" as="geometry" />
        </mxCell>
        <mxCell id="Tu8KCkuSeomywF8r2Gp_-88" value="" style="whiteSpace=wrap;html=1;aspect=fixed;fillColor=#FF3333;" parent="Tu8KCkuSeomywF8r2Gp_-107" vertex="1">
          <mxGeometry x="18.72" y="10.483870967741934" width="7.2" height="7.2" as="geometry" />
        </mxCell>
        <mxCell id="Tu8KCkuSeomywF8r2Gp_-89" value="" style="whiteSpace=wrap;html=1;aspect=fixed;fillColor=#FF3333;" parent="Tu8KCkuSeomywF8r2Gp_-107" vertex="1">
          <mxGeometry x="28.080000000000002" y="10.483870967741934" width="7.2" height="7.2" as="geometry" />
        </mxCell>
        <mxCell id="Tu8KCkuSeomywF8r2Gp_-90" value="" style="whiteSpace=wrap;html=1;aspect=fixed;fillColor=#FF3333;" parent="Tu8KCkuSeomywF8r2Gp_-107" vertex="1">
          <mxGeometry x="9.36" y="20.96774193548387" width="7.2" height="7.2" as="geometry" />
        </mxCell>
        <mxCell id="Tu8KCkuSeomywF8r2Gp_-91" value="" style="whiteSpace=wrap;html=1;aspect=fixed;fillColor=#FF3333;" parent="Tu8KCkuSeomywF8r2Gp_-107" vertex="1">
          <mxGeometry x="18.72" y="20.96774193548387" width="7.2" height="7.2" as="geometry" />
        </mxCell>
        <mxCell id="Tu8KCkuSeomywF8r2Gp_-92" value="" style="whiteSpace=wrap;html=1;aspect=fixed;fillColor=#FF3333;" parent="Tu8KCkuSeomywF8r2Gp_-107" vertex="1">
          <mxGeometry x="28.080000000000002" y="20.96774193548387" width="7.2" height="7.2" as="geometry" />
        </mxCell>
        <mxCell id="Tu8KCkuSeomywF8r2Gp_-93" value="" style="whiteSpace=wrap;html=1;aspect=fixed;fillColor=#FF3333;" parent="Tu8KCkuSeomywF8r2Gp_-107" vertex="1">
          <mxGeometry x="37.44" y="20.96774193548387" width="7.2" height="7.2" as="geometry" />
        </mxCell>
        <mxCell id="Tu8KCkuSeomywF8r2Gp_-94" value="" style="whiteSpace=wrap;html=1;aspect=fixed;fillColor=#FF3333;" parent="Tu8KCkuSeomywF8r2Gp_-107" vertex="1">
          <mxGeometry x="9.36" y="31.4516129032258" width="7.2" height="7.2" as="geometry" />
        </mxCell>
        <mxCell id="Tu8KCkuSeomywF8r2Gp_-95" value="" style="whiteSpace=wrap;html=1;aspect=fixed;fillColor=#FF3333;" parent="Tu8KCkuSeomywF8r2Gp_-107" vertex="1">
          <mxGeometry x="18.72" y="31.4516129032258" width="7.2" height="7.2" as="geometry" />
        </mxCell>
        <mxCell id="Tu8KCkuSeomywF8r2Gp_-96" value="" style="whiteSpace=wrap;html=1;aspect=fixed;fillColor=#FF3333;" parent="Tu8KCkuSeomywF8r2Gp_-107" vertex="1">
          <mxGeometry x="28.080000000000002" y="31.4516129032258" width="7.2" height="7.2" as="geometry" />
        </mxCell>
        <mxCell id="Tu8KCkuSeomywF8r2Gp_-97" value="" style="whiteSpace=wrap;html=1;aspect=fixed;fillColor=#FF3333;" parent="Tu8KCkuSeomywF8r2Gp_-107" vertex="1">
          <mxGeometry x="37.44" y="31.4516129032258" width="7.2" height="7.2" as="geometry" />
        </mxCell>
        <mxCell id="Tu8KCkuSeomywF8r2Gp_-98" value="" style="whiteSpace=wrap;html=1;aspect=fixed;fillColor=#FF3333;" parent="Tu8KCkuSeomywF8r2Gp_-107" vertex="1">
          <mxGeometry x="9.36" y="41.93548387096774" width="7.2" height="7.2" as="geometry" />
        </mxCell>
        <mxCell id="Tu8KCkuSeomywF8r2Gp_-99" value="" style="whiteSpace=wrap;html=1;aspect=fixed;fillColor=#FF3333;" parent="Tu8KCkuSeomywF8r2Gp_-107" vertex="1">
          <mxGeometry x="18.72" y="41.93548387096774" width="7.2" height="7.2" as="geometry" />
        </mxCell>
        <mxCell id="Tu8KCkuSeomywF8r2Gp_-100" value="" style="whiteSpace=wrap;html=1;aspect=fixed;fillColor=#FF3333;" parent="Tu8KCkuSeomywF8r2Gp_-107" vertex="1">
          <mxGeometry x="28.080000000000002" y="41.93548387096774" width="7.2" height="7.2" as="geometry" />
        </mxCell>
        <mxCell id="Tu8KCkuSeomywF8r2Gp_-101" value="" style="whiteSpace=wrap;html=1;aspect=fixed;fillColor=#FF3333;" parent="Tu8KCkuSeomywF8r2Gp_-107" vertex="1">
          <mxGeometry x="37.44" y="41.93548387096774" width="7.2" height="7.2" as="geometry" />
        </mxCell>
        <mxCell id="Tu8KCkuSeomywF8r2Gp_-102" value="" style="whiteSpace=wrap;html=1;aspect=fixed;fillColor=#FF3333;" parent="Tu8KCkuSeomywF8r2Gp_-107" vertex="1">
          <mxGeometry y="41.93548387096774" width="7.2" height="7.2" as="geometry" />
        </mxCell>
        <mxCell id="Tu8KCkuSeomywF8r2Gp_-103" value="" style="whiteSpace=wrap;html=1;aspect=fixed;fillColor=#FF3333;" parent="Tu8KCkuSeomywF8r2Gp_-107" vertex="1">
          <mxGeometry y="31.4516129032258" width="7.2" height="7.2" as="geometry" />
        </mxCell>
        <mxCell id="Tu8KCkuSeomywF8r2Gp_-104" value="" style="whiteSpace=wrap;html=1;aspect=fixed;fillColor=#FF3333;" parent="Tu8KCkuSeomywF8r2Gp_-107" vertex="1">
          <mxGeometry x="46.800000000000004" y="41.93548387096774" width="7.2" height="7.2" as="geometry" />
        </mxCell>
        <mxCell id="Tu8KCkuSeomywF8r2Gp_-108" value="" style="group" parent="WIyWlLk6GJQsqaUBKTNV-1" vertex="1" connectable="0">
          <mxGeometry x="384" y="429" width="66" height="52" as="geometry" />
        </mxCell>
        <mxCell id="Tu8KCkuSeomywF8r2Gp_-67" value="" style="whiteSpace=wrap;html=1;aspect=fixed;" parent="Tu8KCkuSeomywF8r2Gp_-108" vertex="1">
          <mxGeometry x="22.88" width="8.387096774193548" height="8.387096774193548" as="geometry" />
        </mxCell>
        <mxCell id="Tu8KCkuSeomywF8r2Gp_-68" value="" style="whiteSpace=wrap;html=1;aspect=fixed;" parent="Tu8KCkuSeomywF8r2Gp_-108" vertex="1">
          <mxGeometry x="34.32" width="8.387096774193548" height="8.387096774193548" as="geometry" />
        </mxCell>
        <mxCell id="Tu8KCkuSeomywF8r2Gp_-69" value="" style="whiteSpace=wrap;html=1;aspect=fixed;" parent="Tu8KCkuSeomywF8r2Gp_-108" vertex="1">
          <mxGeometry x="22.88" y="10.903225806451614" width="8.387096774193548" height="8.387096774193548" as="geometry" />
        </mxCell>
        <mxCell id="Tu8KCkuSeomywF8r2Gp_-70" value="" style="whiteSpace=wrap;html=1;aspect=fixed;" parent="Tu8KCkuSeomywF8r2Gp_-108" vertex="1">
          <mxGeometry x="34.32" y="10.903225806451614" width="8.387096774193548" height="8.387096774193548" as="geometry" />
        </mxCell>
        <mxCell id="Tu8KCkuSeomywF8r2Gp_-71" value="" style="whiteSpace=wrap;html=1;aspect=fixed;" parent="Tu8KCkuSeomywF8r2Gp_-108" vertex="1">
          <mxGeometry x="11.44" y="21.806451612903228" width="8.387096774193548" height="8.387096774193548" as="geometry" />
        </mxCell>
        <mxCell id="Tu8KCkuSeomywF8r2Gp_-72" value="" style="whiteSpace=wrap;html=1;aspect=fixed;" parent="Tu8KCkuSeomywF8r2Gp_-108" vertex="1">
          <mxGeometry x="22.88" y="21.806451612903228" width="8.387096774193548" height="8.387096774193548" as="geometry" />
        </mxCell>
        <mxCell id="Tu8KCkuSeomywF8r2Gp_-73" value="" style="whiteSpace=wrap;html=1;aspect=fixed;" parent="Tu8KCkuSeomywF8r2Gp_-108" vertex="1">
          <mxGeometry x="34.32" y="21.806451612903228" width="8.387096774193548" height="8.387096774193548" as="geometry" />
        </mxCell>
        <mxCell id="Tu8KCkuSeomywF8r2Gp_-74" value="" style="whiteSpace=wrap;html=1;aspect=fixed;" parent="Tu8KCkuSeomywF8r2Gp_-108" vertex="1">
          <mxGeometry x="45.76" y="21.806451612903228" width="8.387096774193548" height="8.387096774193548" as="geometry" />
        </mxCell>
        <mxCell id="Tu8KCkuSeomywF8r2Gp_-75" value="" style="whiteSpace=wrap;html=1;aspect=fixed;" parent="Tu8KCkuSeomywF8r2Gp_-108" vertex="1">
          <mxGeometry x="11.44" y="32.70967741935484" width="8.387096774193548" height="8.387096774193548" as="geometry" />
        </mxCell>
        <mxCell id="Tu8KCkuSeomywF8r2Gp_-76" value="" style="whiteSpace=wrap;html=1;aspect=fixed;" parent="Tu8KCkuSeomywF8r2Gp_-108" vertex="1">
          <mxGeometry x="22.88" y="32.70967741935484" width="8.387096774193548" height="8.387096774193548" as="geometry" />
        </mxCell>
        <mxCell id="Tu8KCkuSeomywF8r2Gp_-77" value="" style="whiteSpace=wrap;html=1;aspect=fixed;" parent="Tu8KCkuSeomywF8r2Gp_-108" vertex="1">
          <mxGeometry x="34.32" y="32.70967741935484" width="8.387096774193548" height="8.387096774193548" as="geometry" />
        </mxCell>
        <mxCell id="Tu8KCkuSeomywF8r2Gp_-78" value="" style="whiteSpace=wrap;html=1;aspect=fixed;" parent="Tu8KCkuSeomywF8r2Gp_-108" vertex="1">
          <mxGeometry x="45.76" y="32.70967741935484" width="8.387096774193548" height="8.387096774193548" as="geometry" />
        </mxCell>
        <mxCell id="Tu8KCkuSeomywF8r2Gp_-79" value="" style="whiteSpace=wrap;html=1;aspect=fixed;" parent="Tu8KCkuSeomywF8r2Gp_-108" vertex="1">
          <mxGeometry x="11.44" y="43.612903225806456" width="8.387096774193548" height="8.387096774193548" as="geometry" />
        </mxCell>
        <mxCell id="Tu8KCkuSeomywF8r2Gp_-80" value="" style="whiteSpace=wrap;html=1;aspect=fixed;" parent="Tu8KCkuSeomywF8r2Gp_-108" vertex="1">
          <mxGeometry x="22.88" y="43.612903225806456" width="8.387096774193548" height="8.387096774193548" as="geometry" />
        </mxCell>
        <mxCell id="Tu8KCkuSeomywF8r2Gp_-81" value="" style="whiteSpace=wrap;html=1;aspect=fixed;" parent="Tu8KCkuSeomywF8r2Gp_-108" vertex="1">
          <mxGeometry x="34.32" y="43.612903225806456" width="8.387096774193548" height="8.387096774193548" as="geometry" />
        </mxCell>
        <mxCell id="Tu8KCkuSeomywF8r2Gp_-82" value="" style="whiteSpace=wrap;html=1;aspect=fixed;" parent="Tu8KCkuSeomywF8r2Gp_-108" vertex="1">
          <mxGeometry x="45.76" y="43.612903225806456" width="8.387096774193548" height="8.387096774193548" as="geometry" />
        </mxCell>
        <mxCell id="Tu8KCkuSeomywF8r2Gp_-83" value="" style="whiteSpace=wrap;html=1;aspect=fixed;" parent="Tu8KCkuSeomywF8r2Gp_-108" vertex="1">
          <mxGeometry y="43.612903225806456" width="8.387096774193548" height="8.387096774193548" as="geometry" />
        </mxCell>
        <mxCell id="Tu8KCkuSeomywF8r2Gp_-84" value="" style="whiteSpace=wrap;html=1;aspect=fixed;" parent="Tu8KCkuSeomywF8r2Gp_-108" vertex="1">
          <mxGeometry y="32.70967741935484" width="8.387096774193548" height="8.387096774193548" as="geometry" />
        </mxCell>
        <mxCell id="Tu8KCkuSeomywF8r2Gp_-85" value="" style="whiteSpace=wrap;html=1;aspect=fixed;" parent="Tu8KCkuSeomywF8r2Gp_-108" vertex="1">
          <mxGeometry x="57.2" y="43.612903225806456" width="8.387096774193548" height="8.387096774193548" as="geometry" />
        </mxCell>
        <mxCell id="Tu8KCkuSeomywF8r2Gp_-111" value="" style="curved=1;endArrow=classic;html=1;rounded=0;strokeColor=#007FFF;strokeWidth=2;" parent="WIyWlLk6GJQsqaUBKTNV-1" edge="1">
          <mxGeometry width="50" height="50" relative="1" as="geometry">
            <mxPoint x="402" y="376" as="sourcePoint" />
            <mxPoint x="422" y="356" as="targetPoint" />
            <Array as="points">
              <mxPoint x="419" y="376" />
              <mxPoint x="422" y="373" />
              <mxPoint x="402" y="363" />
            </Array>
          </mxGeometry>
        </mxCell>
      </root>
    </mxGraphModel>
  </diagram>
</mxfile>
